<?xml version="1.0" encoding="UTF-8"?>
<svg id="_圖層_2" data-name="圖層 2" xmlns="http://www.w3.org/2000/svg" viewBox="0 0 128 128">
  <defs>
    <style>
      .cls-1 {
        fill: #59a56f;
      }

      .cls-1, .cls-2 {
        stroke-width: 0px;
      }

      .cls-2 {
        fill: #fff;
      }
    </style>
  </defs>
  <g id="_圖層_3" data-name="圖層 3">
    <g>
      <circle class="cls-2" cx="64" cy="64" r="64"/>
      <g>
        <path class="cls-1" d="M62.95,62.47c-.78,1.79.38,3.83,2.31,4.09,5.64.76,16.84,1.32,26.38-4.07,9.26-5.23,14.53-14.68,16.91-20,.9-2.03-.41-4.36-2.62-4.64-5.79-.72-16.6-1.09-25.86,4.14s-14.86,15.26-17.12,20.48Z"/>
        <path class="cls-1" d="M65.05,62.47c.78,1.79-.38,3.83-2.31,4.09-5.64.76-16.84,1.32-26.38-4.07s-14.53-14.68-16.91-20c-.9-2.03.41-4.36,2.62-4.64,5.79-.72,16.6-1.09,25.86,4.14,9.54,5.39,14.86,15.26,17.12,20.48Z"/>
        <rect class="cls-1" x="62.21" y="62.19" width="4.8" height="44.01" rx="2.4" ry="2.4"/>
      </g>
    </g>
  </g>
</svg>